
<svg fill="#000000" version="1.1" id="Capa_1" xmlns="http://www.w3.org/2000/svg" xmlns:xlink="http://www.w3.org/1999/xlink"
	 width="800px" height="800px" viewBox="0 0 423.836 423.836"
	 xml:space="preserve">
<g>
	<path d="M423.836,77.351H0v269.135h423.836V77.351z M74.172,330.877l9.072-41.253h257.325l9.085,41.253H74.172z M404.54,273.73
		H19.296V100.039H404.54V273.73z"/>
	<circle cx="125.238" cy="311.198" r="6.049"/>
	<ellipse cx="300.828" cy="311.198" rx="6.055" ry="6.049"/>
	<path d="M143.679,217.398c0-0.137-0.061-0.244-0.081-0.373c-0.318-12.617-7.355-23.495-17.628-29.418
		c-0.207-0.172-0.379-0.382-0.629-0.517c-0.245-0.134-0.509-0.164-0.777-0.232c-4.803-2.48-10.189-4.029-15.97-4.029
		c-6.49,0-12.503,1.894-17.725,4.987c-0.194,0.076-0.407,0.1-0.589,0.21c-0.116,0.068-0.174,0.18-0.28,0.26
		c-9.87,6.218-16.486,17.134-16.486,29.633c0,0.185,0.054,0.353,0.054,0.537l0,0l0,0c0.207,12.856,7.378,23.921,17.859,29.876
		c0.164,0.132,0.282,0.284,0.479,0.393c0.148,0.076,0.321,0.06,0.471,0.124c4.875,2.561,10.331,4.151,16.218,4.151
		c6.59,0,12.682-1.932,17.947-5.089c0.134-0.061,0.277-0.044,0.411-0.12c0.114-0.072,0.173-0.173,0.271-0.261
		c9.864-6.212,16.473-17.128,16.473-29.619c0-0.128-0.038-0.261-0.038-0.404C143.656,217.475,143.679,217.431,143.679,217.398z
		 M125.985,238.714l-8.644-14.095c-1.124-1.854-3.543-2.42-5.402-1.302c-1.843,1.142-2.426,3.559-1.294,5.406l8.712,14.206
		c-3.304,1.427-6.939,2.236-10.764,2.236c-3.296,0-6.412-0.682-9.341-1.756l8.065-14.863c1.036-1.915,0.331-4.292-1.579-5.33
		c-1.88-1.025-4.286-0.328-5.324,1.579l-8.061,14.868c-5.494-4.124-9.366-10.228-10.542-17.28h16.846
		c2.166,0,3.927-1.764,3.927-3.928c0-2.168-1.761-3.923-3.927-3.923h-16.95c0.877-7.007,4.382-13.128,9.538-17.448l8.816,14.374
		c0.739,1.211,2.028,1.876,3.346,1.876c0.706,0,1.411-0.185,2.054-0.581c1.847-1.135,2.426-3.547,1.288-5.402l-8.878-14.465
		c3.298-1.422,6.917-2.216,10.722-2.216c3.308,0,6.44,0.683,9.375,1.767l-8.195,15.102c-1.038,1.91-0.329,4.292,1.577,5.322
		c0.589,0.32,1.234,0.48,1.869,0.48c1.389,0,2.737-0.741,3.455-2.06l8.187-15.084c5.486,4.119,9.357,10.219,10.526,17.275h-19.43
		c-2.166,0-3.925,1.764-3.925,3.924c0,2.172,1.759,3.927,3.925,3.927h19.534C134.622,228.303,131.125,234.402,125.985,238.714z"/>
	<path d="M352.154,217.398c0-0.108-0.052-0.196-0.067-0.305c-0.293-12.669-7.346-23.58-17.665-29.509
		c-0.208-0.164-0.369-0.369-0.605-0.503c-0.236-0.126-0.484-0.148-0.745-0.218c-4.805-2.495-10.194-4.043-15.989-4.043
		c-6.48,0-12.495,1.894-17.709,4.967c-0.2,0.08-0.429,0.104-0.613,0.222c-0.124,0.07-0.185,0.188-0.293,0.276
		c-9.857,6.218-16.482,17.134-16.482,29.625c0,13.08,7.282,24.373,17.901,30.408c0.16,0.129,0.297,0.297,0.497,0.405
		c0.148,0.092,0.324,0.06,0.485,0.124c4.872,2.573,10.327,4.151,16.214,4.151c6.576,0,12.68-1.939,17.953-5.105
		c0.132-0.044,0.261-0.027,0.385-0.104c0.108-0.064,0.16-0.173,0.244-0.232c9.875-6.224,16.499-17.141,16.499-29.647
		c0-0.145-0.048-0.28-0.048-0.421C352.139,217.463,352.154,217.431,352.154,217.398z M334.454,238.714l-8.648-14.095
		c-1.126-1.854-3.542-2.42-5.397-1.302c-1.848,1.142-2.421,3.559-1.295,5.406l8.717,14.206c-3.299,1.427-6.934,2.229-10.748,2.229
		c-3.299,0-6.424-0.682-9.354-1.756l8.062-14.871c1.038-1.899,0.325-4.284-1.578-5.322c-1.884-1.025-4.276-0.328-5.318,1.579
		l-8.051,14.859c-5.498-4.124-9.369-10.219-10.548-17.264h16.844c2.168,0,3.923-1.764,3.923-3.928c0-2.168-1.755-3.923-3.923-3.923
		h-16.952c0.882-7.007,4.385-13.128,9.55-17.442l8.805,14.368c0.741,1.211,2.023,1.876,3.342,1.876c0.714,0,1.419-0.185,2.061-0.581
		c1.847-1.135,2.433-3.547,1.29-5.402l-8.872-14.465c3.298-1.422,6.925-2.224,10.735-2.224c3.294,0,6.424,0.684,9.354,1.768
		l-8.191,15.102c-1.033,1.909-0.328,4.288,1.579,5.33c0.602,0.32,1.234,0.473,1.871,0.473c1.391,0,2.737-0.75,3.451-2.052
		l8.171-15.092c5.498,4.12,9.369,10.219,10.535,17.284h-19.436c-2.168,0-3.924,1.748-3.924,3.924c0,2.164,1.756,3.927,3.924,3.927
		h19.544C343.094,228.303,339.604,234.418,334.454,238.714z"/>
	<rect x="34.536" y="119.806" width="354.775" height="42.01"/>
</g>
</svg>
