<svg fill="#000000" version="1.1" id="Capa_1" xmlns="http://www.w3.org/2000/svg" xmlns:xlink="http://www.w3.org/1999/xlink"
	 width="800px" height="800px" viewBox="0 0 424.82 424.82"
	 xml:space="preserve">
<g>
	<path d="M226.649,325.894v-89.422c7.642-1.571,11.437-4.016,11.437-4.016v-15.425h-12.503v-0.084c0.057,0,0.093,0,0.141,0
		c6.973,0,18.062-1.13,25.427-7.421c4.745-4.034,7.237-9.53,7.446-16.322l-3.358-0.1c7.161-7.015,11.838-15.854,11.838-25.82v-74.22
		c0-8.095-1.475-15.661-3.959-22.209L285.859,45.9c0,0-29.932-45.085-77.406-45.891c-47.486-0.798-63.259,48.359-63.259,48.359
		l17.452,20.355c-2.41,3.741-4.434,7.903-5.791,12.74h17.192v7.851h-18.757c-0.291,2.078-0.479,4.232-0.591,6.472h19.348v7.851
		h-19.484v6.478h19.484v7.848h-19.484v6.48h19.484v7.849h-19.484v6.478h19.484v7.851h-19.484v6.472h19.484v7.851h-19.484v6.348
		c0,0.044,0.014,0.084,0.014,0.13h19.47v7.849h-18.374c3.55,13.899,15.931,24.948,30.807,30.328h6.923v11.445h-5.063V232.2
		c0,0,3.949,2.585,11.715,4.231v89.354c-50.802,2.477-90.189,19.949-90.189,41.168c0,22.915,45.919,41.497,102.542,41.497
		c56.635,0,102.544-18.582,102.544-41.497C314.957,345.979,276.533,328.69,226.649,325.894z M247.019,204.665
		c-5.887,5.043-15.44,5.903-21.436,5.887v-4.959h9.578c6.14-2.225,11.825-5.46,16.687-9.408
		C251.183,199.644,249.611,202.44,247.019,204.665z M241.806,94.406v7.851H190.35v-7.851H241.806z M190.35,87.937v-7.851h51.456
		v7.851H190.35z M241.806,108.735v7.851H190.35v-7.851H241.806z M241.806,123.063v7.851H190.35v-7.851H241.806z M241.806,137.376
		v7.851H190.35v-7.851H241.806z M241.806,151.705v7.851H190.35v-7.851H241.806z M172.445,58.159
		c7.019-7.46,18.628-15.579,36.017-15.395c15.331,0.168,26.09,2.677,33.804,6.158c-1.378-0.323-2.761-0.545-4.171-0.545
		c-15.533,0-33.651,0-33.651,0C192.219,48.377,181.119,51.621,172.445,58.159z M190.35,173.876v-7.851h51.456v7.851H190.35z"/>
	<path d="M113.686,386.157c2.571,15.38,46.833,38.663,79.86,38.663h37.756c33.029,0,77.279-23.283,79.856-38.663
		c-18.126,18.402-59.354,28.136-98.733,28.136C173.05,414.293,131.801,404.563,113.686,386.157z"/>
</g>
</svg>
