<svg fill="#000000" version="1.1" id="Capa_1" xmlns="http://www.w3.org/2000/svg" xmlns:xlink="http://www.w3.org/1999/xlink"
	 width="800px" height="800px" viewBox="0 0 481.266 481.266"
	 xml:space="preserve">
<g>
	<path d="M371.096,286.677c13.188,0,23.885-10.695,23.885-23.888c0-13.188-10.696-23.878-23.885-23.878
		c-8.9,0-10.893,4.927-11.276,12.132h-22.843c-8.075-16.042-12.575-31.939-14.566-47.159h21.708
		c0.385,7.213,2.392,12.128,11.284,12.128c13.188,0,23.885-10.692,23.885-23.882c0-13.185-10.696-23.88-23.885-23.88
		c-8.893,0-10.899,4.921-11.284,12.128h-22.975c0.404-17.482,3.671-33.528,7.851-47.155h22.975
		c0.385,7.213,2.393,12.128,11.284,12.128c13.188,0,23.885-10.692,23.885-23.882s-10.696-23.88-23.885-23.88
		c-8.892,0-10.899,4.921-11.284,12.128h-14.091c2.77-6.1,5.391-11.086,7.438-14.689c4.324-7.62,9.438-18.316,15.208-31.793
		c1.964-4.584,2.425-12.465-0.213-17.717C346.23,17.444,318.01,0,286.684,0h-3.29c-1.907,0-3.535,0.958-4.36,2.575
		c-1.242,2.442-0.4,5.456,2.753,9.806c8.584,11.886,12.427,22.964,12.427,28.661c0,14.547-24.565,26.824-53.643,26.824
		s-53.641-12.277-53.641-26.824c0-5.709,3.837-16.783,12.427-28.661c3.14-4.35,3.985-7.364,2.749-9.806
		C201.276,0.958,199.655,0,197.747,0h-3.29c-31.168,0-59.31,17.31-73.456,45.173c-2.386,4.699-2.507,12.481-0.269,17.717
		c5.827,13.619,10.99,24.437,15.356,32.137c2.04,3.597,4.668,8.59,7.426,14.689h-14.227c-0.382-7.213-2.384-12.128-11.281-12.128
		c-13.185,0-23.88,10.689-23.88,23.88s10.696,23.882,23.88,23.882c8.896,0,10.898-4.923,11.281-12.128h23.115
		c4.174,13.627,7.434,29.673,7.851,47.155h-23.106c-0.383-7.213-2.385-12.128-11.281-12.128c-13.187,0-23.88,10.696-23.88,23.88
		c0,13.19,10.693,23.882,23.88,23.882c8.896,0,10.898-4.923,11.281-12.128h21.842c-2.001,15.22-6.494,31.118-14.563,47.159h-22.98
		c-0.383-7.222-2.385-12.132-11.281-12.132c-13.186,0-23.88,10.69-23.88,23.878c0,13.192,10.694,23.888,23.88,23.888
		c8.896,0,10.898-4.921,11.281-12.13h8.525c-1.889,2.576-3.883,5.137-5.995,7.706c-2.09,2.536-2.914,5.542-2.323,8.456
		c0.585,2.938,2.525,5.397,5.454,6.937c36.772,19.388,47.08,45.978,48.781,66.347c-3.531,2.04-5.925,5.803-5.925,10.151v7.028
		c0,6.164,4.765,11.177,10.794,11.674v88.42h119.72v-88.42c6.031-0.497,10.793-5.51,10.793-11.674v-7.028
		c0-4.248-2.285-7.951-5.667-10.022c1.671-20.362,11.93-46.996,48.73-66.436c2.925-1.551,4.86-4.02,5.442-6.945
		c0.58-2.913-0.245-5.919-2.333-8.451c-2.116-2.573-4.123-5.149-6.015-7.742h8.392C360.204,281.756,362.196,286.677,371.096,286.677
		z"/>
</g>
</svg>
